<svg width="134" height="40" viewBox="0 0 134 40" fill="none" xmlns="http://www.w3.org/2000/svg">
<g clip-path="url(#clip0_1_3234)">
<path d="M13.2783 0C5.8718 0 0 6.0768 0 13.2888H25.4223C26.1593 13.2888 26.7568 13.8868 26.7568 14.6244V23.3533C26.7568 24.5432 28.1942 25.1391 29.0349 24.2977L39.0913 14.2332C39.6127 13.7117 39.6127 12.866 39.0913 12.3444L27.1476 0.391177C26.8974 0.140711 26.5579 0 26.204 0H13.2783Z" fill="#5E72E4"/>
<path d="M26.7567 40.0002C34.1633 40.0002 40.035 33.9235 40.035 26.7114H14.6128C13.8757 26.7114 13.2783 26.1134 13.2783 25.3758V16.6468C13.2783 15.457 11.8408 14.8611 11.0001 15.7025L0.943599 25.767C0.422446 26.2885 0.422446 27.1342 0.943599 27.6557L12.8874 39.6088C13.1377 39.8595 13.4771 40.0002 13.831 40.0002H26.7567Z" fill="#5E72E4"/>
<path d="M59.4164 29.6665H44.3801L52.6491 14.4621H44.3721V10.6582H59.3844L51.1344 25.8605H59.4084L59.4164 29.6665Z" fill="#5E72E4"/>
<path d="M66.898 25.9815C67.0377 26.025 67.182 26.054 67.3277 26.068C67.4727 26.0811 67.6154 26.0863 67.7604 26.0863C68.1104 26.0878 68.4587 26.0391 68.7944 25.9421C69.1227 25.8466 69.436 25.708 69.7264 25.5303C70.017 25.3496 70.2794 25.1288 70.5054 24.8745C70.733 24.6155 70.921 24.3258 71.064 24.0143L73.7497 26.6371C72.732 28.0476 71.227 29.0516 69.5114 29.4646C68.938 29.5995 68.35 29.6671 67.7604 29.6666C66.78 29.673 65.809 29.4855 64.9054 29.1158C64.0304 28.7596 63.2364 28.2383 62.5684 27.5815C61.89 26.9101 61.3534 26.1151 60.989 25.2418C60.5964 24.294 60.4 23.2793 60.4117 22.2568C60.399 21.2156 60.595 20.182 60.989 19.2143C61.34 18.3458 61.868 17.5561 62.5414 16.8933C63.2144 16.2305 64.0187 15.7083 64.9054 15.3585C65.812 15.0013 66.7824 14.8231 67.7604 14.834C68.3534 14.8338 68.944 14.9041 69.5197 15.0438C71.2427 15.4623 72.7537 16.4725 73.7767 17.8896L66.898 25.9815ZM68.7784 18.5978C68.615 18.5395 68.4457 18.4998 68.2734 18.4798C68.102 18.4616 67.93 18.453 67.7577 18.4536C67.2717 18.4488 66.79 18.538 66.3394 18.7158C65.904 18.8911 65.5107 19.1528 65.1844 19.4845C64.848 19.8303 64.5854 20.2376 64.411 20.6831C64.2174 21.186 64.1217 21.7196 64.129 22.2568C64.129 22.388 64.129 22.5375 64.1504 22.7028C64.164 22.8725 64.1864 23.0415 64.2177 23.209C64.2497 23.3795 64.2874 23.5421 64.3304 23.6995C64.372 23.8455 64.4304 23.9863 64.505 24.1191L68.7784 18.5978Z" fill="#5E72E4"/>
<path d="M89.4817 29.4028L87.17 27.4662C86.818 27.7757 86.4474 28.0643 86.06 28.3303C85.6717 28.597 85.2607 28.8307 84.8317 29.0287C84.406 29.225 83.9624 29.3812 83.5067 29.4952C83.0574 29.6098 82.5947 29.6673 82.1304 29.6663C81.1494 29.6722 80.1774 29.4822 79.2734 29.1077C78.3984 28.743 77.6044 28.215 76.935 27.553C76.258 26.8747 75.722 26.0737 75.357 25.1947C74.5867 23.2878 74.5867 21.1648 75.357 19.258C75.7214 18.3747 76.257 17.5692 76.935 16.8865C77.603 16.2198 78.3974 15.6872 79.2734 15.3187C80.176 14.9392 81.1487 14.7463 82.1304 14.7522C82.4654 14.753 82.7997 14.7795 83.1304 14.8312C83.4747 14.8853 83.8124 14.9735 84.1384 15.0947C84.4594 15.2073 84.7654 15.3578 85.0494 15.5427C85.335 15.7328 85.581 15.9743 85.775 16.254V9.6665H89.4817V29.4028ZM85.786 22.2092C85.786 21.7182 85.6874 21.232 85.4957 20.7783C85.3104 20.3283 85.0447 19.9142 84.711 19.5558C84.3817 19.2 83.9867 18.9085 83.547 18.6967C83.1067 18.4833 82.6217 18.3733 82.1304 18.3753C81.6444 18.3718 81.1624 18.4613 80.7114 18.6388C80.2757 18.809 79.882 19.0677 79.5554 19.3977C79.218 19.7438 78.9554 20.1535 78.784 20.6018C78.5887 21.1158 78.493 21.6608 78.502 22.2092C78.4964 23.211 78.872 24.1787 79.5554 24.9233C79.881 25.2723 80.2737 25.5545 80.7114 25.7533C81.1557 25.956 81.6404 26.0595 82.1304 26.0563C82.6217 26.0583 83.1067 25.9482 83.547 25.7348C83.986 25.5232 84.3807 25.2327 84.711 24.8785C85.0447 24.5192 85.3104 24.1042 85.4957 23.6532C85.689 23.1955 85.7877 22.7047 85.786 22.2092Z" fill="#5E72E4"/>
<path d="M105.353 29.4017L103.017 27.4562C102.662 27.7672 102.288 28.057 101.898 28.3243C101.504 28.5922 101.088 28.8268 100.654 29.0258C100.224 29.2225 99.7771 29.3793 99.3174 29.4942C98.8624 29.6095 98.3941 29.6673 97.9241 29.6663C96.9391 29.6733 95.961 29.5028 95.0394 29.1633C94.157 28.8403 93.3524 28.343 92.6764 27.7023C91.9821 27.0357 91.4381 26.2352 91.0794 25.352C90.6697 24.3413 90.4674 23.2622 90.4844 22.1757C90.4724 21.1362 90.671 20.1045 91.0684 19.1398C91.4324 18.2498 91.9754 17.44 92.6657 16.7577C93.3404 16.0957 94.1437 15.571 95.0287 15.2145C95.9431 14.8465 96.9237 14.6603 97.913 14.6667C98.385 14.6672 98.8547 14.7248 99.3121 14.8387C99.7754 14.9532 100.226 15.1127 100.657 15.3152C101.091 15.5187 101.507 15.7578 101.9 16.0298C102.29 16.2992 102.66 16.5955 103.006 16.9165L103.041 15.2357H105.342L105.353 29.4017ZM101.621 22.1757C101.62 21.6828 101.522 21.1947 101.33 20.7385C101.142 20.2862 100.872 19.8703 100.534 19.5103C100.203 19.153 99.8044 18.8603 99.3611 18.6475C98.9151 18.4332 98.4241 18.3227 97.9267 18.3247C97.4371 18.3263 96.9517 18.416 96.4954 18.5893C96.0557 18.7513 95.6574 19.0042 95.3274 19.3303C94.9834 19.6763 94.7167 20.0882 94.545 20.54C94.1647 21.608 94.1647 22.7698 94.545 23.838C94.7167 24.2897 94.9834 24.7017 95.3274 25.0475C95.6574 25.3738 96.0557 25.6267 96.4954 25.7887C96.9527 25.9575 97.4377 26.0427 97.9267 26.0402C98.4241 26.042 98.9151 25.9315 99.3611 25.7172C99.8037 25.5045 100.202 25.2127 100.534 24.857C100.872 24.496 101.142 24.0793 101.33 23.6262C101.523 23.1658 101.622 22.6732 101.621 22.1757Z" fill="#5E72E4"/>
<path d="M111.439 27.1665C111.439 28.5472 110.317 29.6665 108.933 29.6665C107.549 29.6665 106.427 28.5472 106.427 27.1665C106.427 25.7858 107.549 24.6665 108.933 24.6665C110.317 24.6665 111.439 25.7858 111.439 27.1665Z" fill="#5E72E4"/>
<path d="M116.924 29.6665H113.229V15.4517H116.924V29.6665Z" fill="#5E72E4"/>
<path d="M117.611 12.1665C117.611 13.5472 116.489 14.6665 115.105 14.6665C113.721 14.6665 112.599 13.5472 112.599 12.1665C112.599 10.7858 113.721 9.6665 115.105 9.6665C116.489 9.6665 117.611 10.7858 117.611 12.1665Z" fill="#5E72E4"/>
<path d="M133.332 22.2419C133.341 23.249 133.144 24.2477 132.754 25.18C132.389 26.056 131.854 26.8549 131.178 27.5324C130.51 28.195 129.718 28.7259 128.844 29.0962C127.937 29.4725 126.961 29.6665 125.975 29.6665C124.989 29.6665 124.013 29.4725 123.106 29.0962C121.321 28.3465 119.911 26.9392 119.183 25.18C118.791 24.2482 118.594 23.249 118.604 22.2419C118.593 21.2242 118.79 20.2145 119.183 19.2719C119.539 18.3994 120.069 17.6042 120.741 16.9322C121.414 16.2602 122.215 15.7245 123.101 15.3559C124.005 14.9775 124.979 14.785 125.963 14.7909C126.947 14.7817 127.924 14.9602 128.839 15.3165C129.713 15.661 130.507 16.1752 131.173 16.8277C131.852 17.5025 132.387 18.302 132.748 19.1799C133.147 20.1532 133.345 21.1937 133.332 22.2419ZM129.63 22.2419C129.639 21.7027 129.54 21.167 129.339 20.6649C129.161 20.2155 128.894 19.8047 128.553 19.4559C128.226 19.1169 127.83 18.8482 127.39 18.6674C126.477 18.31 125.459 18.31 124.547 18.6674C124.108 18.847 123.713 19.1159 123.389 19.4559C123.053 19.8062 122.791 20.2167 122.616 20.6649C122.42 21.1684 122.324 21.7034 122.333 22.2419C122.328 22.7585 122.424 23.2714 122.616 23.753C122.793 24.1999 123.056 24.61 123.389 24.962C123.716 25.3037 124.11 25.5789 124.547 25.7715C124.993 25.9685 125.478 26.069 125.968 26.0659C126.456 26.0685 126.94 25.9747 127.39 25.7899C127.827 25.6102 128.223 25.3465 128.553 25.0145C128.895 24.6665 129.162 24.2555 129.339 23.8055C129.538 23.3074 129.637 22.7764 129.63 22.2419Z" fill="#5E72E4"/>
</g>
<defs>
<clipPath id="clip0_1_3234">
<rect width="133.333" height="40" fill="white"/>
</clipPath>
</defs>
</svg>
